<svg width="27" height="18" viewBox="0 0 27 18" fill="none" xmlns="http://www.w3.org/2000/svg">
<path fill-rule="evenodd" clip-rule="evenodd" d="M9.58582 1.52588e-05H10H26H27V1.00002V17V18H26H10H9.58582L9.29292 17.7071L1.29292 9.70712L0.585815 9.00002L1.29292 8.29291L9.29292 0.292908L9.58582 1.52588e-05ZM10.4142 2.00002L3.41424 9.00002L10.4142 16H25V2.00002H10.4142ZM14 4.58579L14.7071 5.2929L17 7.5858L19.2929 5.29291L20 4.5858L21.4142 6.00002L20.7071 6.70712L18.4142 9.00001L20.7071 11.2929L21.4142 12L20 13.4142L19.2929 12.7071L17 10.4142L14.7071 12.7071L14 13.4142L12.5858 12L13.2929 11.2929L15.5858 9.00001L13.2929 6.70711L12.5858 6.00001L14 4.58579Z" fill="black"/>
</svg>
