<!-- xmlns="http://www.w3.org/2000/svg" style="display: none;" -->
<svg>
  <symbol id="icon-close" viewBox="0 0 10 10" xmlns="http://www.w3.org/2000/svg">
    <path d="M5.58716 3.88906L9.47622 0L10.5872 1.11094L6.69809 5L10.5872 8.88906L9.47622 10L5.58716 6.11094L1.69809 10L0.587158 8.88906L4.47622 5L0.587158 1.11094L1.69809 0L5.58716 3.88906Z" fill="#4F4F4F"/>
  </symbol>
  
  <symbol id="icon-copy" viewBox="0 0 24 24" xmlns="http://www.w3.org/2000/svg">
    <path d="M21.9219 0.390015C23.1406 0.390015 24.1719 1.42126 24.1719 2.64001V16.14C24.1719 17.4056 23.1406 18.39 21.9219 18.39H8.42188C7.15625 18.39 6.17188 17.4056 6.17188 16.14V2.64001C6.17188 1.42126 7.15625 0.390015 8.42188 0.390015H21.9219ZM8.42188 19.89H18.1719V22.14C18.1719 23.4056 17.1406 24.39 15.9219 24.39H2.42188C1.15625 24.39 0.171875 23.4056 0.171875 22.14V8.64001C0.171875 7.42126 1.15625 6.39001 2.42188 6.39001H4.67188V16.14C4.67188 18.2494 6.3125 19.89 8.42188 19.89Z" fill="#3B75A2"/>
  </symbol>

  <symbol id="icon-signum" viewBox="0 0 24 24" xmlns="http://www.w3.org/2000/svg">
    <path fill-rule="evenodd" clip-rule="evenodd" d="M19.3321 2.55469L19.8867 1.72264L18.2226 0.613235L17.6679 1.44529L5.66795 19.4453L5.11325 20.2773L6.77735 21.3867L7.33205 20.5547L19.3321 2.55469ZM5.5 0.999985V1.99998V3.99998H7.5H8.5V5.99998H7.5H5.5V7.99998V8.99998H3.5V7.99998V5.99998H1.5H0.5V3.99998H1.5H3.5V1.99998V0.999985H5.5ZM17.5 16H16.5V18H17.5H23.5H24.5V16H23.5H17.5Z" fill="black"/>
  </symbol>

  <symbol id="icon-backspace" viewBox="0 0 24 24" xmlns="http://www.w3.org/2000/svg">
    <path fill-rule="evenodd" clip-rule="evenodd" d="M9.58582 1.52588e-05H10H26H27V1.00002V17V18H26H10H9.58582L9.29292 17.7071L1.29292 9.70712L0.585815 9.00002L1.29292 8.29291L9.29292 0.292908L9.58582 1.52588e-05ZM10.4142 2.00002L3.41424 9.00002L10.4142 16H25V2.00002H10.4142ZM14 4.58579L14.7071 5.2929L17 7.5858L19.2929 5.29291L20 4.5858L21.4142 6.00002L20.7071 6.70712L18.4142 9.00001L20.7071 11.2929L21.4142 12L20 13.4142L19.2929 12.7071L17 10.4142L14.7071 12.7071L14 13.4142L12.5858 12L13.2929 11.2929L15.5858 9.00001L13.2929 6.70711L12.5858 6.00001L14 4.58579Z" fill="black"/>
  </symbol>
</svg>
